<!DOCTYPE svg PUBLIC "-//W3C//DTD SVG 1.1//EN" "http://www.w3.org/Graphics/SVG/1.1/DTD/svg11.dtd">
<!-- Uploaded to: SVG Repo, www.svgrepo.com, Transformed by: SVG Repo Mixer Tools -->
<svg height="800px" width="800px" version="1.1" id="Layer_1" xmlns="http://www.w3.org/2000/svg" xmlns:xlink="http://www.w3.org/1999/xlink" viewBox="0 0 278.078 278.078" xml:space="preserve" fill="#000000">
<g id="SVGRepo_bgCarrier" stroke-width="0"/>
<g id="SVGRepo_tracerCarrier" stroke-linecap="round" stroke-linejoin="round"/>
<g id="SVGRepo_iconCarrier"> <g> <g> <path style="fill:#10b981;" d="M246.055,188.472c-7.915-8.036-18.495-12.438-29.722-12.438s-21.766,4.402-29.722,12.438 c-7.915,7.996-12.276,18.657-12.276,30.004s4.361,22.009,12.276,30.045c8.198,8.279,18.98,12.398,29.722,12.398 c10.782,0,21.524-4.119,29.722-12.398c7.955-8.036,12.317-18.697,12.317-30.045C258.372,207.169,254.011,196.467,246.055,188.472z "/> <path style="fill:#10b981;" d="M228.198,104.635c0-51.327-41.352-93.083-92.154-93.083c-50.842,0-92.194,41.756-92.194,93.083 c0,40.585,25.845,76.041,63.562,88.438l-1.777,76.606c-0.04,2.221,0.808,4.361,2.302,5.936c1.535,1.575,3.635,2.463,5.815,2.463 h42.523c2.181,0,4.28-0.888,5.815-2.463c1.494-1.575,2.342-3.715,2.302-5.936l-1.736-75.92 C200.98,182.049,228.198,145.583,228.198,104.635z"/> </g> <g> <g id="XMLID_9_"> <g> <path style="fill:#13370e;" d="M222.106,191.415c4.846,4.927,7.552,11.469,7.552,18.415c0,6.986-2.706,13.528-7.552,18.455 c-10.096,10.177-26.491,10.177-36.547,0c-4.886-4.927-7.551-11.469-7.551-18.455c0-6.946,2.665-13.488,7.551-18.455 c4.887-4.927,11.388-7.633,18.253-7.633c6.906,0,13.407,2.706,18.293,7.633L222.106,191.415L222.106,191.415z"/> <path style="fill:#13370e;" d="M187.861,93.083c0,13.407-3.554,26.208-9.773,37.354H45.552 c-6.178-11.105-9.611-23.866-9.611-37.354c0-42.281,34.043-76.727,75.96-76.727C153.778,16.355,187.861,50.802,187.861,93.083z"/> <path style="fill:#081508;" d="M233.535,179.825c7.955,7.996,12.317,18.697,12.317,30.005c0,11.347-4.361,22.009-12.317,30.045 c-8.198,8.279-18.94,12.397-29.722,12.397c-10.742,0-21.524-4.119-29.722-12.397c-7.915-8.036-12.276-18.697-12.276-30.045 c0-11.348,4.361-22.009,12.276-30.005c7.955-8.036,18.495-12.438,29.722-12.438C215.039,167.387,225.62,171.789,233.535,179.825 z M229.658,209.83c0-6.946-2.706-13.488-7.552-18.415v-0.04c-4.886-4.927-11.388-7.633-18.293-7.633 c-6.865,0-13.367,2.706-18.253,7.633c-4.886,4.967-7.551,11.509-7.551,18.455c0,6.986,2.665,13.528,7.551,18.455 c10.055,10.177,26.451,10.177,36.547,0C226.952,223.358,229.658,216.816,229.658,209.83z"/> <path style="fill:#081508;" d="M90.536,226.538L90.536,226.538c4.448,0,8.065-3.583,8.106-8.031l0.021-2.23 c0.042-4.506-3.6-8.182-8.106-8.182l0,0c-4.448,0-8.065,3.584-8.106,8.032l-0.02,2.23 C82.388,222.863,86.029,226.538,90.536,226.538z"/> <path style="fill:#081508;" d="M204.055,93.083C204.055,41.756,162.703,0,111.901,0C61.059,0,19.707,41.756,19.707,93.083 c0,40.585,25.845,76.041,63.563,88.439l-0.218,9.398c-0.105,4.549,3.554,8.293,8.104,8.293l0,0c4.403,0,8.001-3.515,8.104-7.917 l0.366-15.711c0.081-3.837-2.463-7.188-6.138-8.117c-14.013-3.513-26.208-10.863-35.739-20.636h108.105 c-9.975,10.257-22.816,17.809-37.354,21.12c-3.796,0.848-6.461,4.24-6.34,8.157l1.696,74.022H97.888l0.15-6.419 c0.106-4.548-3.552-8.292-8.101-8.292l0,0c-4.402,0-7.999,3.514-8.101,7.915l-0.343,14.792c-0.04,2.221,0.808,4.361,2.302,5.937 c1.534,1.575,3.634,2.463,5.815,2.463h42.523c2.181,0,4.281-0.888,5.815-2.463c1.494-1.575,2.342-3.715,2.302-5.937 l-1.736-75.92C176.837,170.497,204.055,134.031,204.055,93.083z M45.552,130.437c-6.178-11.105-9.611-23.866-9.611-37.354 c0-42.281,34.043-76.728,75.96-76.728c41.877,0,75.96,34.447,75.96,76.728c0,13.407-3.554,26.209-9.773,37.354H45.552z"/> </g> </g> </g> </g> </g>
</svg>