<!DOCTYPE svg PUBLIC "-//W3C//DTD SVG 1.1//EN" "http://www.w3.org/Graphics/SVG/1.1/DTD/svg11.dtd">
<!-- Uploaded to: SVG Repo, www.svgrepo.com, Transformed by: SVG Repo Mixer Tools -->
<svg version="1.1" id="Icons" xmlns="http://www.w3.org/2000/svg" xmlns:xlink="http://www.w3.org/1999/xlink" viewBox="0 0 32 32" xml:space="preserve" width="800px" height="800px" fill="#26a269">
<g id="SVGRepo_bgCarrier" stroke-width="0"/>
<g id="SVGRepo_tracerCarrier" stroke-linecap="round" stroke-linejoin="round"/>
<g id="SVGRepo_iconCarrier"> <style type="text/css"> .st0{fill:none;stroke:#26a269;stroke-width:2;stroke-linecap:round;stroke-linejoin:round;stroke-miterlimit:10;} </style> <path d="M22,20c-1.2,0-2.3,0.3-3.3,1H17v-3.1c4.5-0.5,8-4.3,8-8.9c0-5-4-9-9-9S7,4,7,9c0,4.6,3.5,8.4,8,8.9V21h-1.7 c-1-0.7-2.1-1-3.3-1c-3.3,0-6,2.7-6,6s2.7,6,6,6c1.2,0,2.3-0.3,3.3-1h5.4c1,0.7,2.1,1,3.3,1c3.3,0,6-2.7,6-6S25.3,20,22,20z M12,27 h-1v1c0,0.6-0.4,1-1,1s-1-0.4-1-1v-1H8c-0.6,0-1-0.4-1-1s0.4-1,1-1h1v-1c0-0.6,0.4-1,1-1s1,0.4,1,1v1h1c0.6,0,1,0.4,1,1 S12.6,27,12,27z M22.9,8h-2.3c-0.1-2-0.5-3.7-1.1-5C21.3,4,22.6,5.9,22.9,8z M20.7,10h2.3c-0.3,2.1-1.6,4-3.4,5 C20.2,13.7,20.6,12,20.7,10z M16,2c1,0,2.4,2.3,2.7,6h-5.3C13.6,4.3,15,2,16,2z M9.1,10h2.3c0.1,2,0.5,3.7,1.1,5 C10.7,14,9.4,12.1,9.1,10z M11.3,8H9.1c0.3-2.1,1.6-4,3.4-5C11.8,4.3,11.4,6,11.3,8z M16,16c-1,0-2.4-2.3-2.7-6h5.3 C18.4,13.7,17,16,16,16z M21.9,27.4c0,0.1-0.1,0.2-0.2,0.3c-0.1,0.1-0.2,0.2-0.3,0.2S21.1,28,21,28c-0.3,0-0.5-0.1-0.7-0.3 c-0.1-0.1-0.2-0.2-0.2-0.3c0-0.1-0.1-0.3-0.1-0.4s0-0.3,0.1-0.4c0-0.1,0.1-0.2,0.2-0.3c0.1-0.1,0.2-0.2,0.3-0.2 c0.4-0.2,0.8-0.1,1.1,0.2c0.1,0.1,0.2,0.2,0.2,0.3c0,0.1,0.1,0.3,0.1,0.4S22,27.3,21.9,27.4z M23.7,25.7C23.5,25.9,23.3,26,23,26 c-0.1,0-0.3,0-0.4-0.1s-0.2-0.1-0.3-0.2C22.1,25.5,22,25.3,22,25c0-0.1,0-0.3,0.1-0.4c0-0.1,0.1-0.2,0.2-0.3 c0.1-0.1,0.2-0.2,0.3-0.2c0.2-0.1,0.5-0.1,0.8,0c0.1,0,0.2,0.1,0.3,0.2c0.1,0.1,0.2,0.2,0.2,0.3c0,0.1,0.1,0.3,0.1,0.4 C24,25.3,23.9,25.5,23.7,25.7z"/> </g>
</svg>